<?xml version="1.0" standalone="no"?>
<!DOCTYPE svg PUBLIC "-//W3C//DTD SVG 20010904//EN"
 "http://www.w3.org/TR/2001/REC-SVG-20010904/DTD/svg10.dtd">
<svg version="1.0" xmlns="http://www.w3.org/2000/svg"
 width="512.000000pt" height="512.000000pt" viewBox="0 0 512.000000 512.000000"
 preserveAspectRatio="xMidYMid meet">
<metadata>
Created by potrace 1.14, written by Peter Selinger 2001-2017
</metadata>
<g transform="translate(0.000000,512.000000) scale(0.100000,-0.100000)"
fill="#000000" stroke="none">
<path d="M835 5109 c-427 -54 -771 -402 -824 -834 -15 -121 -15 -3304 -1
-3425 53 -442 395 -785 835 -839 121 -15 3304 -15 3425 -1 442 53 785 395 839
835 15 121 15 3304 1 3425 -53 442 -395 785 -835 839 -110 13 -3333 13 -3440
0z m210 -1274 c88 -23 194 -77 248 -129 43 -42 107 -129 107 -147 0 -4 -59
-40 -132 -79 -114 -61 -133 -69 -141 -55 -22 40 -74 88 -121 113 -68 36 -196
38 -267 6 -59 -27 -116 -85 -142 -143 -28 -63 -35 -199 -14 -272 65 -221 389
-279 520 -93 17 24 34 44 38 44 7 0 246 -127 259 -137 9 -8 -38 -80 -89 -135
-64 -70 -178 -130 -291 -154 -89 -19 -251 -14 -345 11 -219 57 -390 227 -440
436 -19 82 -19 216 0 298 49 205 222 372 447 431 93 24 278 27 363 5z m1227
-4 c183 -47 285 -138 341 -304 20 -58 21 -88 25 -464 l3 -403 -160 0 -161 0 0
67 0 67 -42 -41 c-102 -99 -272 -136 -449 -99 -127 27 -216 89 -270 188 -32
59 -34 69 -34 158 0 76 4 104 21 141 29 61 86 116 160 151 98 46 176 58 392
58 l192 0 0 33 c0 40 -30 105 -61 134 -91 83 -300 81 -470 -5 l-76 -38 -57
113 c-31 62 -56 118 -56 123 0 12 118 71 186 94 153 50 379 62 516 27z m38
-1496 c155 -47 290 -157 354 -288 51 -104 67 -177 64 -294 l-3 -98 -443 -3
-443 -2 6 -23 c38 -127 158 -201 325 -201 105 0 183 22 245 70 26 19 50 34 55
32 5 -2 48 -46 95 -98 l88 -95 -48 -42 c-113 -99 -248 -143 -437 -143 -213 0
-370 55 -497 175 -109 103 -167 228 -178 385 -12 182 43 335 167 461 85 86
196 148 310 174 82 19 262 13 340 -10z m1380 -134 l0 -159 -72 0 c-89 1 -141
-13 -199 -51 -107 -72 -119 -126 -119 -523 l0 -308 -170 0 -170 0 0 590 0 590
160 0 160 0 0 -70 c0 -38 2 -70 4 -70 2 0 20 16 41 35 72 69 212 122 323 124
l42 1 0 -159z m805 134 c140 -38 251 -118 300 -219 52 -108 55 -139 55 -563
l0 -393 -160 0 -160 0 0 66 0 66 -50 -46 c-83 -74 -139 -91 -305 -91 -162 0
-210 12 -298 75 -90 65 -141 164 -140 275 2 155 72 252 226 310 86 32 197 45
389 45 177 0 169 -4 147 75 -14 51 -81 116 -136 133 -56 17 -196 15 -268 -3
-33 -8 -90 -30 -127 -49 l-67 -34 -62 116 c-59 110 -61 116 -43 129 61 46 225
105 339 123 84 13 288 4 360 -15z m-3850 -389 c88 -217 163 -391 167 -388 3 4
79 181 169 395 l162 387 164 0 c90 0 163 -3 163 -6 0 -4 -109 -264 -241 -578
-133 -314 -244 -577 -246 -584 -4 -10 -46 -12 -182 -10 l-176 3 -212 505
c-117 278 -228 542 -247 588 l-35 82 177 0 178 0 159 -394z"/>
<path d="M1975 3143 c-80 -17 -117 -58 -117 -130 0 -89 67 -138 188 -137 93 1
170 35 213 95 27 37 31 50 31 111 l0 68 -147 -1 c-82 -1 -157 -3 -168 -6z"/>
<path d="M2037 2086 c-93 -25 -176 -109 -193 -193 l-6 -33 285 0 286 0 -14 47
c-26 85 -95 150 -188 178 -61 18 -105 18 -170 1z"/>
<path d="M4165 1643 c-82 -21 -120 -117 -75 -191 40 -65 156 -90 264 -58 100
30 156 102 156 201 l0 55 -162 -1 c-90 -1 -172 -4 -183 -6z"/>
</g>
</svg>
